<svg width="138" height="31" viewBox="0 0 138 31" fill="none" xmlns="http://www.w3.org/2000/svg">
<path d="M6.18555 7.83203C6.18555 6.04818 5.90234 4.89583 5.33594 4.375V4.38477C5.02995 4.11784 4.66211 3.91927 4.23242 3.78906C3.80924 3.65885 3.30469 3.59375 2.71875 3.59375L1.91797 3.32031C1.46875 3.09245 1.13997 2.85156 0.931641 2.59766C0.716797 2.34375 0.609375 2.06706 0.609375 1.76758C0.609375 1.42904 0.671224 1.1849 0.794922 1.03516C0.91862 0.885417 1.12044 0.810547 1.40039 0.810547C1.51107 0.810547 1.63151 0.836589 1.76172 0.888672C1.89844 0.940755 2.04492 1.03841 2.20117 1.18164H17.8457C19.4147 1.18164 20.7819 1.32161 21.9473 1.60156C23.1126 1.875 24.0827 2.27539 24.8574 2.80273C25.2155 3.07617 25.5508 3.38867 25.8633 3.74023C26.1758 4.0918 26.4525 4.47266 26.6934 4.88281C26.9408 5.29297 27.1458 5.72917 27.3086 6.19141C27.4714 6.65365 27.582 7.13542 27.6406 7.63672V8.66211C27.6406 11.3965 26.2669 13.252 23.5195 14.2285C23.6888 14.2806 23.8646 14.3457 24.0469 14.4238C24.2357 14.502 24.4082 14.5768 24.5645 14.6484C25.2546 14.9935 25.8763 15.3841 26.4297 15.8203C26.9896 16.25 27.4681 16.7285 27.8652 17.2559L27.8555 17.2461C28.2786 17.7734 28.6074 18.3171 28.8418 18.877C29.0827 19.4368 29.2324 20.0033 29.291 20.5762C29.291 21.1361 29.2454 21.696 29.1543 22.2559C29.0697 22.8158 28.9329 23.3659 28.7441 23.9062C28.5553 24.4466 28.3145 24.974 28.0215 25.4883C27.735 25.9961 27.3932 26.4811 26.9961 26.9434C26.6055 27.3926 26.1432 27.806 25.6094 28.1836C25.082 28.5547 24.4863 28.8867 23.8223 29.1797C23.1777 29.4531 22.4746 29.6582 21.7129 29.7949C20.9577 29.9316 20.1439 30 19.2715 30L0.296875 29.9707C0.36849 29.4564 0.563802 29.0332 0.882812 28.7012C1.19531 28.3626 1.64453 28.0892 2.23047 27.8809C2.8099 27.8809 3.29818 27.8483 3.69531 27.7832C4.09245 27.7181 4.41797 27.6237 4.67188 27.5H4.66211C4.87044 27.3893 5.06576 27.2135 5.24805 26.9727C5.43685 26.7253 5.59635 26.4388 5.72656 26.1133V26.123C5.8763 25.7324 5.99023 25.2116 6.06836 24.5605C6.14648 23.903 6.18555 23.1185 6.18555 22.207V7.83203ZM12.9531 4.18945C12.9401 4.20247 12.9303 4.20898 12.9238 4.20898L12.9531 4.18945ZM17.3086 13.252C18.0768 13.252 18.7344 13.1445 19.2812 12.9297C19.8346 12.7148 20.3001 12.3926 20.6777 11.9629C21.446 11.071 21.8301 9.82422 21.8301 8.22266V7.04102C21.7324 6.50716 21.5469 6.02214 21.2734 5.58594C21 5.14974 20.6354 4.77865 20.1797 4.47266C19.7305 4.16667 19.1934 3.93229 18.5684 3.76953C17.9434 3.60026 17.2337 3.51562 16.4395 3.51562C15.7298 3.51562 15.0723 3.58073 14.4668 3.71094C13.8678 3.83464 13.3535 4.00065 12.9238 4.20898C12.6113 4.41732 12.3542 4.72656 12.1523 5.13672C11.957 5.54036 11.8594 6.01888 11.8594 6.57227V13.252H17.3086ZM11.8594 15.5469V24.7754C11.8594 25.1855 11.918 25.5566 12.0352 25.8887C12.1589 26.2142 12.3151 26.4811 12.5039 26.6895L12.4844 26.6602C12.7122 26.862 12.9661 27.0312 13.2461 27.168C13.5326 27.2982 13.8125 27.3958 14.0859 27.4609L14.0664 27.4512C14.418 27.5098 14.7793 27.5553 15.1504 27.5879C15.5215 27.6139 15.8991 27.627 16.2832 27.627C18.64 27.627 20.3132 27.0638 21.3027 25.9375C21.8301 25.3581 22.2207 24.6615 22.4746 23.8477C22.7285 23.0339 22.8555 22.0931 22.8555 21.0254C22.8555 17.373 20.8796 15.5469 16.9277 15.5469H11.8594ZM37.7457 9.94141C37.7457 8.95182 37.7132 8.08594 37.648 7.34375C37.5829 6.60156 37.4951 5.99284 37.3844 5.51758V5.52734C37.2737 5.11719 37.1533 4.77539 37.023 4.50195C36.8993 4.22201 36.7659 4.03646 36.6227 3.94531C36.4534 3.82161 36.2483 3.73372 36.0074 3.68164C35.773 3.62305 35.5029 3.59375 35.1969 3.59375L33.7613 3.41797C33.2405 3.17708 32.8466 2.86458 32.5797 2.48047C32.3193 2.08984 32.1891 1.61458 32.1891 1.05469C32.6122 1.06771 33.3089 1.08073 34.2789 1.09375C35.2555 1.10677 36.4729 1.11979 37.9312 1.13281C39.3961 1.13932 41.0888 1.14909 43.0094 1.16211C44.9365 1.16862 47.0686 1.17513 49.4059 1.18164C50.9033 1.18164 52.2737 1.34766 53.5172 1.67969C54.7672 2.00521 55.8382 2.45117 56.7301 3.01758C57.622 3.64909 58.3056 4.42708 58.7809 5.35156C59.2626 6.27604 59.5035 7.31445 59.5035 8.4668C59.4905 9.27409 59.3863 10.026 59.191 10.7227C58.9957 11.4128 58.7158 12.0605 58.3512 12.666C57.9736 13.2715 57.4788 13.8118 56.8668 14.2871C56.2613 14.7559 55.5322 15.1562 54.6793 15.4883C53.0517 16.1458 50.926 16.4746 48.3023 16.4746C48.2503 16.4746 48.1819 16.4746 48.0973 16.4746C48.0191 16.4746 47.9345 16.4714 47.8434 16.4648H47.8141L47.7652 16.4551H47.6773H47.6285H47.5016C47.4169 16.4486 47.3486 16.4453 47.2965 16.4453C47.2444 16.4453 47.1923 16.4453 47.1402 16.4453L43.4098 16.3379V21.3184C43.4098 22.334 43.4391 23.2161 43.4977 23.9648C43.5562 24.7135 43.6409 25.3125 43.7516 25.7617V25.752C43.8622 26.1165 43.9957 26.4421 44.152 26.7285C44.3147 27.015 44.4905 27.2233 44.6793 27.3535C45.1285 27.653 46.0107 27.819 47.3258 27.8516C47.8076 28.0469 48.2242 28.3236 48.5758 28.6816C48.9339 29.0332 49.2236 29.4727 49.4449 30C48.8525 30 48.2242 30 47.5602 30C46.9026 29.9935 46.2483 29.9902 45.5973 29.9902C44.9462 29.9902 44.3212 29.9902 43.7223 29.9902C43.1233 29.9902 42.5927 29.9902 42.1305 29.9902C40.8089 29.9902 39.5556 29.9935 38.3707 30C37.1923 30.0065 36.1311 30.0163 35.1871 30.0293C34.2431 30.0423 33.4423 30.0553 32.7848 30.0684C32.1337 30.0814 31.6747 30.0911 31.4078 30.0977C32.0068 29.056 32.775 28.3073 33.7125 27.8516C34.1812 27.8516 34.5849 27.832 34.9234 27.793C35.2685 27.7474 35.5452 27.6953 35.7535 27.6367L35.734 27.6465C35.9163 27.5879 36.0953 27.5 36.2711 27.3828C36.4469 27.2656 36.6096 27.1322 36.7594 26.9824C36.9091 26.8327 37.0426 26.6276 37.1598 26.3672C37.277 26.1068 37.3811 25.804 37.4723 25.459V25.4688C37.5504 25.0651 37.6155 24.5801 37.6676 24.0137C37.7197 23.4408 37.7457 22.8158 37.7457 22.1387V9.94141ZM47.7652 14.0625C48.2991 14.0625 48.8036 14.0072 49.2789 13.8965C49.7542 13.7793 50.2001 13.6198 50.6168 13.418C51.04 13.2096 51.4339 12.9622 51.7984 12.6758C52.163 12.3893 52.4983 12.0736 52.8043 11.7285L52.7945 11.7383C53.0875 11.4062 53.3056 11.0254 53.4488 10.5957C53.5986 10.1595 53.6734 9.69076 53.6734 9.18945V8.71094C53.6344 8.32031 53.5758 7.93945 53.4977 7.56836C53.4195 7.19076 53.3219 6.83594 53.2047 6.50391C53.0875 6.17188 52.9508 5.86914 52.7945 5.5957C52.6383 5.31576 52.4625 5.07812 52.2672 4.88281C52.0849 4.70052 51.8277 4.53451 51.4957 4.38477C51.1637 4.22852 50.7796 4.0918 50.3434 3.97461C49.9137 3.85742 49.4417 3.76302 48.9273 3.69141C48.413 3.61328 47.8857 3.55469 47.3453 3.51562C47.1305 3.52214 46.9091 3.5319 46.6812 3.54492C46.4599 3.55794 46.2451 3.57422 46.0367 3.59375C45.8349 3.61328 45.6461 3.63607 45.4703 3.66211C45.2945 3.68815 45.1448 3.71419 45.0211 3.74023C44.7997 3.79232 44.5947 3.89974 44.4059 4.0625C44.2236 4.21875 44.0576 4.42057 43.9078 4.66797L43.9176 4.6582C43.7483 4.95117 43.6214 5.32878 43.5367 5.79102C43.4521 6.25326 43.4098 6.81641 43.4098 7.48047V13.9844L47.7652 14.0625ZM80.4289 11.3965C80.1424 11.748 79.8007 12.0768 79.4035 12.3828C79.0129 12.6888 78.5799 12.9785 78.1047 13.252C78.4953 13.3496 78.8697 13.4733 79.2277 13.623C79.5858 13.7663 79.9211 13.929 80.2336 14.1113C80.8521 14.4824 81.4087 14.9316 81.9035 15.459C82.3983 15.9863 82.7922 16.5397 83.0852 17.1191C83.3781 17.7181 83.5995 18.3398 83.7492 18.9844C83.9055 19.6224 83.9836 20.2669 83.9836 20.918C83.9836 21.7253 83.8924 22.4805 83.7102 23.1836C83.5279 23.8867 83.2447 24.5508 82.8605 25.1758H82.8703C82.4992 25.7812 82.0663 26.3379 81.5715 26.8457C81.0832 27.347 80.5331 27.8027 79.9211 28.2129C79.3091 28.61 78.6776 28.9551 78.0266 29.248C77.382 29.541 76.7115 29.7917 76.0148 30C75.3117 30.2083 74.6021 30.3646 73.8859 30.4688C73.1698 30.5794 72.4374 30.6445 71.6887 30.6641C70.8944 30.6641 70.0969 30.5794 69.2961 30.4102C68.5018 30.2409 67.7368 29.9935 67.0012 29.668C66.2655 29.3229 65.5917 28.929 64.9797 28.4863C64.3677 28.0436 63.8371 27.5488 63.3879 27.002C62.4374 25.8366 61.9589 24.5931 61.9523 23.2715C62.05 22.0605 62.4927 21.123 63.2805 20.459C63.6776 20.1465 64.1236 19.9121 64.6184 19.7559C65.1197 19.5931 65.6893 19.5117 66.3273 19.5117C66.7049 19.7721 67.0467 20.013 67.3527 20.2344C67.6587 20.4492 67.9257 20.6576 68.1535 20.8594C68.4074 21.0742 68.6255 21.3216 68.8078 21.6016C68.9966 21.875 69.1561 22.1647 69.2863 22.4707L69.2766 22.4609C69.4914 22.9036 69.6802 23.3659 69.843 23.8477C70.0057 24.3294 70.1229 24.7754 70.1945 25.1855L68.9641 25.459C68.619 24.3457 68.0428 23.7044 67.2355 23.5352C67.1704 23.5417 67.1053 23.5807 67.0402 23.6523C66.9816 23.7174 66.91 23.8053 66.8254 23.916C66.7212 24.0658 66.6333 24.2318 66.5617 24.4141C66.4966 24.5964 66.4543 24.7819 66.4348 24.9707C66.604 25.459 66.8352 25.9245 67.1281 26.3672C67.4276 26.8099 67.7727 27.168 68.1633 27.4414H68.1535C68.5832 27.7148 69.0845 27.9362 69.6574 28.1055C70.2303 28.2682 70.813 28.3659 71.4055 28.3984L71.6105 28.3594C71.7733 28.3398 71.9328 28.3203 72.0891 28.3008C72.2453 28.2747 72.3885 28.252 72.5187 28.2324C72.6555 28.2129 72.7727 28.1934 72.8703 28.1738C72.968 28.1543 73.0428 28.138 73.0949 28.125H73.0852C73.8013 27.8971 74.4556 27.5944 75.048 27.2168C75.6405 26.8327 76.132 26.377 76.5227 25.8496C77.343 24.7689 77.7531 23.3789 77.7531 21.6797C77.7336 21.0872 77.6359 20.5371 77.4602 20.0293C77.2909 19.5215 77.0598 19.082 76.7668 18.7109H76.7766C76.4641 18.3398 76.1092 18.0143 75.7121 17.7344C75.3215 17.4544 74.9048 17.2396 74.4621 17.0898L74.4719 17.0996C73.9836 16.9434 73.4758 16.8229 72.9484 16.7383C72.4211 16.6471 71.8742 16.6016 71.3078 16.6016C70.507 16.6016 70.1099 16.8034 70.1164 17.207C69.1073 17.207 68.4693 16.8685 68.2023 16.1914C68.2805 15.8073 68.4367 15.5111 68.6711 15.3027C68.912 15.0944 69.2082 14.9577 69.5598 14.8926C70.4191 14.7298 71.1613 14.5247 71.7863 14.2773C72.4178 14.0234 72.8931 13.7272 73.2121 13.3887C73.5767 13.0306 73.9217 12.64 74.2473 12.2168C74.5728 11.7936 74.8755 11.3574 75.1555 10.9082L75.1457 10.918C75.3866 10.5013 75.5786 10.0716 75.7219 9.62891C75.8651 9.1862 75.9367 8.75977 75.9367 8.34961C75.9432 7.81576 75.8358 7.30143 75.6145 6.80664C75.3931 6.31185 75.0904 5.86589 74.7062 5.46875C74.3221 5.07161 73.8762 4.73633 73.3684 4.46289C72.8671 4.18945 72.343 4.00716 71.7961 3.91602C71.4445 3.94206 71.0734 4.00065 70.6828 4.0918C70.2922 4.17643 69.9309 4.29362 69.5988 4.44336H69.6086C69.2635 4.59961 68.9348 4.80143 68.6223 5.04883C68.3098 5.28971 68.0396 5.52734 67.8117 5.76172V5.75195C67.6099 5.9668 67.4569 6.1849 67.3527 6.40625C67.2486 6.6276 67.19 6.83268 67.177 7.02148C66.91 7.76367 66.7766 8.32357 66.7766 8.70117C66.7766 8.89648 66.8254 9.00716 66.923 9.0332C67.2095 9.22201 67.5383 9.38802 67.9094 9.53125C68.2805 9.67448 68.6906 9.80143 69.1398 9.91211C69.1398 10.459 69.0975 10.9342 69.0129 11.3379C68.9283 11.7415 68.8143 12.0573 68.6711 12.2852C68.4628 12.5781 68.1633 12.8027 67.7727 12.959C67.3885 13.1087 66.9296 13.1836 66.3957 13.1836C65.8684 13.138 65.3964 13.0143 64.9797 12.8125C64.563 12.6042 64.2082 12.334 63.9152 12.002C63.3488 11.3053 63.0396 10.4427 62.9875 9.41406C63.0005 8.96484 63.0624 8.5026 63.173 8.02734C63.2902 7.54557 63.4628 7.07357 63.6906 6.61133C63.912 6.1556 64.1854 5.71289 64.5109 5.2832C64.8365 4.85352 65.2173 4.43685 65.6535 4.0332C66.0897 3.64258 66.5715 3.29102 67.0988 2.97852C67.6262 2.65951 68.1991 2.38932 68.8176 2.16797C69.4426 1.9401 70.1066 1.76758 70.8098 1.65039C71.5194 1.52669 72.2681 1.46484 73.0559 1.46484C73.8436 1.46484 74.5988 1.52669 75.3215 1.65039C76.0507 1.77409 76.7375 1.95964 77.382 2.20703C77.994 2.45443 78.5767 2.75716 79.1301 3.11523C79.6835 3.47331 80.1555 3.86393 80.5461 4.28711C80.9562 4.73633 81.2785 5.21484 81.5129 5.72266C81.7538 6.23047 81.9003 6.76107 81.9523 7.31445C81.9523 8.82487 81.4445 10.1855 80.4289 11.3965ZM104.704 20.3027C104.71 19.7233 104.658 19.1569 104.548 18.6035C104.437 18.0436 104.274 17.5163 104.059 17.0215C103.845 16.5267 103.584 16.0677 103.278 15.6445C102.979 15.2214 102.637 14.8535 102.253 14.541C101.869 14.2285 101.449 13.9811 100.993 13.7988C100.537 13.6165 100.055 13.5124 99.5477 13.4863C99.2156 13.5449 98.8803 13.6393 98.5418 13.7695C98.2098 13.8997 97.8875 14.0625 97.575 14.2578C97.269 14.4531 96.9825 14.6777 96.7156 14.9316C96.4487 15.1855 96.2176 15.4622 96.0223 15.7617L96.032 15.7422C95.8302 16.0872 95.6447 16.4616 95.4754 16.8652C95.3126 17.2689 95.1694 17.6921 95.0457 18.1348C94.9285 18.571 94.8374 19.0234 94.7723 19.4922C94.7072 19.9609 94.6746 20.4329 94.6746 20.9082C94.7006 21.9889 94.8341 22.972 95.075 23.8574C95.3159 24.7428 95.674 25.5534 96.1492 26.2891C97.0151 27.6497 98.2749 28.3301 99.9285 28.3301C100.436 28.3171 100.899 28.2292 101.315 28.0664C101.738 27.8971 102.123 27.64 102.468 27.2949C103.19 26.5853 103.74 25.6283 104.118 24.4238C104.307 23.7858 104.45 23.125 104.548 22.4414C104.652 21.7578 104.704 21.0449 104.704 20.3027ZM94.9871 10.7324C94.8569 11.2598 94.7462 11.7904 94.6551 12.3242C94.5639 12.8516 94.4858 13.3594 94.4207 13.8477C94.4728 13.7826 94.5216 13.7207 94.5672 13.6621C94.6193 13.6035 94.6714 13.5449 94.7234 13.4863C95.0294 13.1348 95.3973 12.8158 95.827 12.5293C96.2631 12.2363 96.7482 11.9759 97.282 11.748C97.8029 11.5332 98.3921 11.3672 99.0496 11.25C99.7072 11.1263 100.414 11.0645 101.169 11.0645C101.878 11.0775 102.559 11.1523 103.21 11.2891C103.867 11.4258 104.486 11.6178 105.065 11.8652C105.651 12.1061 106.195 12.3991 106.696 12.7441C107.204 13.0827 107.666 13.4603 108.083 13.877C108.48 14.3001 108.835 14.7526 109.147 15.2344C109.466 15.7161 109.74 16.2174 109.968 16.7383C110.202 17.2526 110.387 17.7799 110.524 18.3203C110.667 18.8542 110.759 19.3848 110.798 19.9121C110.798 20.6217 110.726 21.3151 110.583 21.9922C110.44 22.6628 110.231 23.3333 109.958 24.0039C109.678 24.6484 109.346 25.2572 108.962 25.8301C108.578 26.403 108.132 26.9434 107.624 27.4512C107.136 27.946 106.589 28.3919 105.983 28.7891C105.378 29.1862 104.74 29.5247 104.069 29.8047C103.405 30.0716 102.689 30.2799 101.921 30.4297C101.152 30.5859 100.391 30.6641 99.6355 30.6641H99.5379C98.353 30.6315 97.2527 30.4427 96.2371 30.0977C95.228 29.7591 94.2905 29.2676 93.4246 28.623C92.5717 27.9655 91.8296 27.2266 91.198 26.4062C90.5665 25.5794 90.0327 24.6517 89.5965 23.623C88.7306 21.6178 88.2977 19.5052 88.2977 17.2852C88.2977 17.0312 88.3009 16.8099 88.3074 16.6211C88.3139 16.4258 88.3237 16.2728 88.3367 16.1621V16.1914C88.4018 14.9609 88.5841 13.75 88.8836 12.5586C89.1896 11.3672 89.6095 10.2116 90.1434 9.0918C90.4168 8.55794 90.7228 8.03385 91.0613 7.51953C91.3999 7.00521 91.7612 6.51367 92.1453 6.04492C92.5359 5.57617 92.9461 5.13672 93.3758 4.72656C93.812 4.3099 94.2579 3.93555 94.7137 3.60352C95.6967 2.91341 96.7579 2.38607 97.8973 2.02148C99.0366 1.65039 100.221 1.46484 101.452 1.46484C102.917 1.46484 104.255 1.72526 105.466 2.24609C106.065 2.51953 106.598 2.81901 107.067 3.14453C107.536 3.47005 107.943 3.83464 108.288 4.23828C108.998 5.0651 109.352 5.89844 109.352 6.73828C109.352 7.10286 109.271 7.4349 109.108 7.73438C108.952 8.02734 108.737 8.27474 108.464 8.47656C108.119 8.71094 107.796 8.82812 107.497 8.82812C107.23 8.82812 106.97 8.70117 106.716 8.44727C106.501 7.41211 105.873 6.39323 104.831 5.39062C104.421 5 103.998 4.71029 103.561 4.52148C103.125 4.32617 102.676 4.22852 102.214 4.22852C102.142 4.22852 102.051 4.23503 101.94 4.24805C101.836 4.26107 101.719 4.27409 101.589 4.28711C101.198 4.28711 100.811 4.33268 100.427 4.42383C100.049 4.50846 99.6811 4.62891 99.323 4.78516C98.965 4.94141 98.6232 5.13021 98.2977 5.35156C97.9721 5.56641 97.6694 5.80404 97.3895 6.06445L97.4187 6.04492C97.1518 6.3444 96.8947 6.67318 96.6473 7.03125C96.4064 7.38281 96.1785 7.76042 95.9637 8.16406C95.7553 8.5612 95.5665 8.97786 95.3973 9.41406C95.228 9.84375 95.0913 10.2832 94.9871 10.7324ZM133.588 11.3965C133.302 11.748 132.96 12.0768 132.563 12.3828C132.172 12.6888 131.739 12.9785 131.264 13.252C131.655 13.3496 132.029 13.4733 132.387 13.623C132.745 13.7663 133.08 13.929 133.393 14.1113C134.011 14.4824 134.568 14.9316 135.063 15.459C135.558 15.9863 135.952 16.5397 136.245 17.1191C136.537 17.7181 136.759 18.3398 136.909 18.9844C137.065 19.6224 137.143 20.2669 137.143 20.918C137.143 21.7253 137.052 22.4805 136.87 23.1836C136.687 23.8867 136.404 24.5508 136.02 25.1758H136.03C135.659 25.7812 135.226 26.3379 134.731 26.8457C134.243 27.347 133.692 27.8027 133.08 28.2129C132.468 28.61 131.837 28.9551 131.186 29.248C130.541 29.541 129.871 29.7917 129.174 30C128.471 30.2083 127.761 30.3646 127.045 30.4688C126.329 30.5794 125.597 30.6445 124.848 30.6641C124.054 30.6641 123.256 30.5794 122.455 30.4102C121.661 30.2409 120.896 29.9935 120.161 29.668C119.425 29.3229 118.751 28.929 118.139 28.4863C117.527 28.0436 116.996 27.5488 116.547 27.002C115.597 25.8366 115.118 24.5931 115.112 23.2715C115.209 22.0605 115.652 21.123 116.44 20.459C116.837 20.1465 117.283 19.9121 117.778 19.7559C118.279 19.5931 118.849 19.5117 119.487 19.5117C119.864 19.7721 120.206 20.013 120.512 20.2344C120.818 20.4492 121.085 20.6576 121.313 20.8594C121.567 21.0742 121.785 21.3216 121.967 21.6016C122.156 21.875 122.315 22.1647 122.446 22.4707L122.436 22.4609C122.651 22.9036 122.84 23.3659 123.002 23.8477C123.165 24.3294 123.282 24.7754 123.354 25.1855L122.123 25.459C121.778 24.3457 121.202 23.7044 120.395 23.5352C120.33 23.5417 120.265 23.5807 120.2 23.6523C120.141 23.7174 120.069 23.8053 119.985 23.916C119.881 24.0658 119.793 24.2318 119.721 24.4141C119.656 24.5964 119.614 24.7819 119.594 24.9707C119.763 25.459 119.995 25.9245 120.287 26.3672C120.587 26.8099 120.932 27.168 121.323 27.4414H121.313C121.743 27.7148 122.244 27.9362 122.817 28.1055C123.39 28.2682 123.972 28.3659 124.565 28.3984L124.77 28.3594C124.933 28.3398 125.092 28.3203 125.248 28.3008C125.405 28.2747 125.548 28.252 125.678 28.2324C125.815 28.2129 125.932 28.1934 126.03 28.1738C126.127 28.1543 126.202 28.138 126.254 28.125H126.245C126.961 27.8971 127.615 27.5944 128.207 27.2168C128.8 26.8327 129.291 26.377 129.682 25.8496C130.502 24.7689 130.912 23.3789 130.912 21.6797C130.893 21.0872 130.795 20.5371 130.62 20.0293C130.45 19.5215 130.219 19.082 129.926 18.7109H129.936C129.623 18.3398 129.269 18.0143 128.871 17.7344C128.481 17.4544 128.064 17.2396 127.621 17.0898L127.631 17.0996C127.143 16.9434 126.635 16.8229 126.108 16.7383C125.58 16.6471 125.034 16.6016 124.467 16.6016C123.666 16.6016 123.269 16.8034 123.276 17.207C122.267 17.207 121.629 16.8685 121.362 16.1914C121.44 15.8073 121.596 15.5111 121.83 15.3027C122.071 15.0944 122.368 14.9577 122.719 14.8926C123.579 14.7298 124.321 14.5247 124.946 14.2773C125.577 14.0234 126.052 13.7272 126.371 13.3887C126.736 13.0306 127.081 12.64 127.407 12.2168C127.732 11.7936 128.035 11.3574 128.315 10.9082L128.305 10.918C128.546 10.5013 128.738 10.0716 128.881 9.62891C129.024 9.1862 129.096 8.75977 129.096 8.34961C129.103 7.81576 128.995 7.30143 128.774 6.80664C128.552 6.31185 128.25 5.86589 127.866 5.46875C127.482 5.07161 127.036 4.73633 126.528 4.46289C126.026 4.18945 125.502 4.00716 124.955 3.91602C124.604 3.94206 124.233 4.00065 123.842 4.0918C123.452 4.17643 123.09 4.29362 122.758 4.44336H122.768C122.423 4.59961 122.094 4.80143 121.782 5.04883C121.469 5.28971 121.199 5.52734 120.971 5.76172V5.75195C120.769 5.9668 120.616 6.1849 120.512 6.40625C120.408 6.6276 120.349 6.83268 120.336 7.02148C120.069 7.76367 119.936 8.32357 119.936 8.70117C119.936 8.89648 119.985 9.00716 120.082 9.0332C120.369 9.22201 120.698 9.38802 121.069 9.53125C121.44 9.67448 121.85 9.80143 122.299 9.91211C122.299 10.459 122.257 10.9342 122.172 11.3379C122.088 11.7415 121.974 12.0573 121.83 12.2852C121.622 12.5781 121.323 12.8027 120.932 12.959C120.548 13.1087 120.089 13.1836 119.555 13.1836C119.028 13.138 118.556 13.0143 118.139 12.8125C117.722 12.6042 117.368 12.334 117.075 12.002C116.508 11.3053 116.199 10.4427 116.147 9.41406C116.16 8.96484 116.222 8.5026 116.332 8.02734C116.45 7.54557 116.622 7.07357 116.85 6.61133C117.071 6.1556 117.345 5.71289 117.67 5.2832C117.996 4.85352 118.377 4.43685 118.813 4.0332C119.249 3.64258 119.731 3.29102 120.258 2.97852C120.786 2.65951 121.358 2.38932 121.977 2.16797C122.602 1.9401 123.266 1.76758 123.969 1.65039C124.679 1.52669 125.427 1.46484 126.215 1.46484C127.003 1.46484 127.758 1.52669 128.481 1.65039C129.21 1.77409 129.897 1.95964 130.541 2.20703C131.153 2.45443 131.736 2.75716 132.289 3.11523C132.843 3.47331 133.315 3.86393 133.705 4.28711C134.116 4.73633 134.438 5.21484 134.672 5.72266C134.913 6.23047 135.06 6.76107 135.112 7.31445C135.112 8.82487 134.604 10.1855 133.588 11.3965Z" fill="white"/>
</svg>
