<svg width="157" height="37" viewBox="0 0 157 37" fill="none" xmlns="http://www.w3.org/2000/svg">
<path d="M15.293 33.5098C15.4219 33.791 15.4863 34.0547 15.4863 34.3008C15.4863 34.5352 15.416 34.6992 15.2754 34.793C15.1465 34.8984 14.9121 34.9863 14.5723 35.0566C13.0605 35.4082 11.5312 35.6777 9.98438 35.8652C8.4375 36.0645 6.87305 36.2227 5.29102 36.3398C5.10352 36.3164 4.96289 36.252 4.86914 36.1465C4.78711 36.041 4.7168 35.9297 4.6582 35.8125C4.59961 35.6953 4.54102 35.5605 4.48242 35.4082C4.42383 35.2676 4.32422 35.1504 4.18359 35.0566C2.8125 30.3223 1.86328 25.5293 1.33594 20.6777C0.808594 15.8145 0.544922 10.8867 0.544922 5.89453C0.544922 5.48438 0.474609 5.0625 0.333984 4.62891C0.205078 4.19531 0.140625 3.79102 0.140625 3.41602C0.140625 2.95898 0.287109 2.5957 0.580078 2.32617C2.02148 2.06836 3.47461 1.79297 4.93945 1.5C6.4043 1.20703 7.86328 0.943359 9.31641 0.708984C9.67969 0.708984 9.96094 0.814453 10.1602 1.02539C10.3711 1.22461 10.5469 1.4707 10.6875 1.76367C10.8398 2.04492 10.957 2.35547 11.0391 2.69531C11.1211 3.02344 11.209 3.32227 11.3027 3.5918C12.1465 2.86523 13.0898 2.33789 14.1328 2.00977C15.1758 1.66992 16.2715 1.5 17.4199 1.5C19.3184 1.5 20.9004 1.67578 22.166 2.02734C23.4434 2.36719 24.457 2.84766 25.207 3.46875C25.9688 4.07813 26.502 4.81641 26.8066 5.68359C27.123 6.53906 27.2812 7.4707 27.2812 8.47852C27.2812 9.25195 27.082 10.0605 26.6836 10.9043C26.2969 11.7363 25.6699 12.6094 24.8027 13.5234C24.873 13.5 25.0078 13.4883 25.207 13.4883H25.5938C26.7656 13.4883 27.8438 13.7285 28.8281 14.209C29.8125 14.6895 30.6562 15.3398 31.3594 16.1602C32.0742 16.9688 32.6309 17.9297 33.0293 19.043C33.4277 20.1445 33.627 21.3047 33.627 22.5234C33.627 23.8008 33.3809 24.9609 32.8887 26.0039C32.3965 27.0469 31.7285 27.9785 30.8848 28.7988C30.0527 29.6074 29.0742 30.3105 27.9492 30.9082C26.8359 31.5059 25.6641 32.0039 24.4336 32.4023C23.2148 32.8008 21.9551 33.0938 20.6543 33.2812C19.3652 33.4805 18.1348 33.5801 16.9629 33.5801C16.6699 33.5801 16.3828 33.5742 16.1016 33.5625C15.832 33.5508 15.5625 33.5332 15.293 33.5098ZM16.2422 25.3359C16.957 25.3359 17.6719 25.2188 18.3867 24.9844C19.1133 24.7383 19.7637 24.3984 20.3379 23.9648C20.9121 23.5312 21.375 23.0039 21.7266 22.3828C22.0781 21.7617 22.2539 21.0645 22.2539 20.291C22.2539 19.7168 22.1367 19.2246 21.9023 18.8145C21.6797 18.4043 21.3867 18.082 21.0234 17.8477C20.6602 17.6016 20.2617 17.4258 19.8281 17.3203C19.4062 17.2148 18.9902 17.1621 18.5801 17.1621C17.877 17.1621 17.1504 17.3027 16.4004 17.584C15.6621 17.8535 14.9883 18.2227 14.3789 18.6914C13.7695 19.1602 13.2598 19.7051 12.8496 20.3262C12.4395 20.9473 12.2344 21.5977 12.2344 22.2773C12.2344 22.8047 12.3457 23.2617 12.5684 23.6484C12.8027 24.0234 13.1133 24.3398 13.5 24.5977C13.8867 24.8438 14.3203 25.0312 14.8008 25.1602C15.2812 25.2773 15.7617 25.3359 16.2422 25.3359ZM14.8008 13.418C15.5156 13.418 16.2305 13.3008 16.9453 13.0664C17.6719 12.8203 18.3223 12.4746 18.8965 12.0293C19.4707 11.584 19.9336 11.0508 20.2852 10.4297C20.6367 9.80859 20.8125 9.11133 20.8125 8.33789C20.8125 7.76367 20.6953 7.27734 20.4609 6.87891C20.2383 6.48047 19.9453 6.16406 19.582 5.92969C19.2188 5.68359 18.8203 5.50781 18.3867 5.40234C17.9648 5.29688 17.5488 5.24414 17.1387 5.24414C16.4355 5.24414 15.709 5.38477 14.959 5.66602C14.2207 5.93555 13.5469 6.30469 12.9375 6.77344C12.3281 7.24219 11.8184 7.78711 11.4082 8.4082C10.998 9.0293 10.793 9.67969 10.793 10.3594C10.793 10.8867 10.9102 11.3438 11.1445 11.7305C11.3906 12.1055 11.7012 12.4219 12.0762 12.6797C12.4512 12.9258 12.8789 13.1133 13.3594 13.2422C13.8398 13.3594 14.3203 13.418 14.8008 13.418ZM52.4334 27.0938C51.953 27.0938 51.4784 27.0703 51.0096 27.0234C50.5409 26.9766 50.0662 26.9062 49.5858 26.8125C49.5389 27.1172 49.492 27.6855 49.4452 28.5176C49.3983 29.3496 49.3455 30.2344 49.287 31.1719C49.2284 32.0977 49.1698 32.9766 49.1112 33.8086C49.0643 34.6406 49.0291 35.209 49.0057 35.5137C48.9823 35.8535 48.7713 36.0996 48.3729 36.252C47.9862 36.416 47.5174 36.5215 46.9666 36.5684C46.4159 36.6152 45.8358 36.6387 45.2264 36.6387C44.6522 36.6387 44.1717 36.6387 43.785 36.6387C43.1405 36.6387 42.4959 36.627 41.8514 36.6035C41.2069 36.5801 40.5565 36.5684 39.9002 36.5684C39.5487 36.5684 39.1912 36.5801 38.828 36.6035C38.4647 36.627 38.1014 36.6387 37.7381 36.6387C37.3397 36.6387 37.0819 36.5684 36.9647 36.4277C36.8592 36.2988 36.8065 36.082 36.8065 35.7773C36.5252 33.4453 36.3319 31.166 36.2264 28.9395C36.1327 26.7012 36.0858 24.4336 36.0858 22.1367C36.0858 18.8203 36.1444 15.5449 36.2616 12.3105C36.3905 9.06445 36.4784 5.77148 36.5252 2.43164C36.5252 2.19727 36.5897 2.00391 36.7186 1.85156C36.8475 1.6875 37.0116 1.56445 37.2108 1.48242C37.4217 1.40039 37.6502 1.33594 37.8963 1.28906C38.1541 1.24219 38.4061 1.20703 38.6522 1.18359C40.1639 1.05469 41.6756 0.960937 43.1873 0.902344C44.6991 0.84375 46.2108 0.802734 47.7225 0.779297C48.0506 0.779297 48.3026 0.861328 48.4784 1.02539C48.6659 1.17773 48.7948 1.37695 48.8651 1.62305C48.9354 1.85742 48.9764 2.10938 48.9881 2.37891C48.9998 2.63672 49.0057 2.88281 49.0057 3.11719C49.0057 3.28125 48.9998 3.43945 48.9881 3.5918C48.9764 3.73242 48.9588 3.88477 48.9354 4.04883C49.8495 3.28711 50.8514 2.74219 51.9412 2.41406C53.0428 2.07422 54.1678 1.9043 55.3162 1.9043C56.8983 1.9043 58.41 2.19727 59.8514 2.7832C61.2928 3.36914 62.5526 4.18359 63.6307 5.22656C64.7088 6.26953 65.5702 7.51172 66.2147 8.95312C66.8709 10.3945 67.1991 11.9648 67.1991 13.6641C67.1991 15.75 66.7772 17.625 65.9334 19.2891C65.0897 20.9414 63.9764 22.3535 62.5936 23.5254C61.2225 24.6855 59.6463 25.5703 57.8651 26.1797C56.0955 26.7891 54.285 27.0938 52.4334 27.0938ZM57.408 15.6504C57.8885 15.6504 58.3631 15.5918 58.8319 15.4746C59.3123 15.3457 59.7401 15.1582 60.1151 14.9121C60.4901 14.6543 60.7948 14.3379 61.0291 13.9629C61.2752 13.5762 61.3983 13.1191 61.3983 12.5918C61.3983 11.9121 61.1991 11.2617 60.8006 10.6406C60.4022 10.0195 59.8924 9.47461 59.2713 9.00586C58.6502 8.53711 57.9647 8.16797 57.2147 7.89844C56.4764 7.61719 55.7733 7.47656 55.1053 7.47656C54.6717 7.47656 54.2381 7.5293 53.8045 7.63477C53.3709 7.74023 52.9725 7.91602 52.6092 8.16211C52.2577 8.39648 51.9647 8.71875 51.7303 9.12891C51.5077 9.53906 51.3963 10.0312 51.3963 10.6055C51.3963 11.3789 51.5721 12.0762 51.9237 12.6973C52.287 13.3184 52.7498 13.8457 53.3123 14.2793C53.8748 14.7129 54.5135 15.0527 55.2284 15.2988C55.9549 15.5332 56.6815 15.6504 57.408 15.6504ZM89.3278 12.2227C90.5114 12.75 91.5309 13.418 92.3864 14.2266C93.2536 15.0352 93.9684 15.9316 94.5309 16.916C95.1052 17.9004 95.527 18.9492 95.7966 20.0625C96.0778 21.1758 96.2184 22.3066 96.2184 23.4551C96.2184 25.1191 95.9313 26.7012 95.3571 28.2012C94.7946 29.7012 93.9684 31.0078 92.8786 32.1211C91.7887 33.2344 90.4411 34.1191 88.8356 34.7754C87.2302 35.4434 85.3903 35.7773 83.3161 35.7773C81.7341 35.7773 80.1345 35.5137 78.5173 34.9863C76.9001 34.459 75.4352 33.709 74.1227 32.7363C72.822 31.7637 71.7497 30.5918 70.9059 29.2207C70.0622 27.8496 69.6403 26.3262 69.6403 24.6504C69.6403 23.7363 69.7868 22.7871 70.0798 21.8027C70.197 21.3223 70.4372 21.0234 70.8005 20.9062C71.1755 20.7891 71.5915 20.7305 72.0485 20.7305C72.4821 20.7305 72.9157 20.7422 73.3493 20.7656C73.7829 20.7891 74.193 20.8008 74.5798 20.8008C75.0602 20.8008 75.6345 20.7539 76.3024 20.6602C76.9704 20.5547 77.6091 20.502 78.2184 20.502C78.6989 20.502 79.1091 20.5781 79.4489 20.7305C79.8005 20.8711 80.0348 21.1699 80.152 21.627C79.988 22.0371 79.8766 22.4238 79.818 22.7871C79.7595 23.1387 79.7302 23.4844 79.7302 23.8242C79.7302 24.8789 80.0407 25.6875 80.6618 26.25C81.2829 26.8125 81.9802 27.0938 82.7536 27.0938C83.6911 27.0938 84.5114 26.7012 85.2145 25.916C85.9177 25.1191 86.2692 23.8828 86.2692 22.207C86.2692 21.5039 86.1169 20.9004 85.8122 20.3965C85.5192 19.8926 85.1325 19.4824 84.652 19.166C84.1716 18.8379 83.6208 18.5977 82.9997 18.4453C82.3786 18.2812 81.7399 18.1992 81.0837 18.1992C80.029 18.1992 79.0739 18.3809 78.2184 18.7441C77.902 18.6973 77.6091 18.4219 77.3395 17.918C77.0817 17.4141 76.8356 16.8164 76.6012 16.125C76.3786 15.4219 76.1618 14.7012 75.9509 13.9629C75.7516 13.2129 75.5583 12.5742 75.3708 12.0469C75.5583 11.8125 75.7809 11.6133 76.0387 11.4492C76.3083 11.2734 76.5837 11.1211 76.8649 10.9922C77.1579 10.8516 77.445 10.7109 77.7262 10.5703C78.0075 10.4297 78.2536 10.248 78.4645 10.0254C77.8669 9.93164 77.152 9.87891 76.32 9.86719C75.488 9.85547 74.6911 9.83789 73.9294 9.81445C73.1794 9.79102 72.5407 9.75 72.0134 9.69141C71.486 9.63281 71.2223 9.50391 71.2223 9.30469C71.2223 8.92969 71.2048 8.55469 71.1696 8.17969C71.1345 7.80469 71.1169 7.42383 71.1169 7.03711C71.1169 5.45508 71.2751 3.9668 71.5915 2.57227C71.6149 2.19727 71.6442 1.86914 71.6794 1.58789C71.7145 1.29492 71.9372 1.0957 72.3473 0.990234C72.6286 0.943359 72.8923 0.902344 73.1384 0.867188C73.3962 0.832031 73.6481 0.814453 73.8942 0.814453C75.5466 1.10742 77.2048 1.29492 78.8688 1.37695C80.5446 1.45898 82.2204 1.5 83.8962 1.5C85.2673 1.5 86.568 1.51758 87.7985 1.55273C89.0407 1.58789 90.3473 1.60547 91.7184 1.60547C92.2458 1.60547 92.6852 1.6875 93.0368 1.85156C93.4001 2.00391 93.5817 2.18555 93.5817 2.39648C93.5817 3.76758 93.5524 5.15625 93.4938 6.5625C93.4352 7.96875 93.3825 9.35156 93.3356 10.7109C92.6325 10.9336 91.9411 11.1387 91.2614 11.3262C90.5817 11.5137 89.9372 11.8125 89.3278 12.2227ZM127.189 23.1738C127.06 25.0723 126.65 26.707 125.959 28.0781C125.267 29.4375 124.365 30.5566 123.251 31.4355C122.15 32.3145 120.896 32.959 119.49 33.3691C118.095 33.791 116.63 34.002 115.095 34.002C112.974 34.002 110.912 33.6387 108.908 32.9121C106.904 32.1738 105.117 31.125 103.546 29.7656C101.976 28.3945 100.71 26.7363 99.7495 24.791C98.7886 22.8457 98.3081 20.6602 98.3081 18.2344C98.3081 16.0078 98.7066 13.8633 99.5034 11.8008C100.312 9.73828 101.402 7.9043 102.773 6.29883C104.144 4.68164 105.75 3.36328 107.589 2.34375C109.441 1.32422 111.41 0.744141 113.496 0.603516C113.695 0.603516 113.871 0.65625 114.023 0.761719C114.175 0.867188 114.386 0.943359 114.656 0.990234C114.726 2.36133 114.843 3.70312 115.007 5.01562C115.183 6.31641 115.423 7.61719 115.728 8.91797C115.728 9.12891 115.693 9.32812 115.623 9.51562C115.552 9.69141 115.459 9.7793 115.341 9.7793C114.697 9.63867 114.111 9.56836 113.584 9.56836C112.494 9.56836 111.539 9.7793 110.718 10.2012C109.91 10.6113 109.218 11.1738 108.644 11.8887C108.07 12.5918 107.613 13.4004 107.273 14.3145C106.933 15.2285 106.716 16.1777 106.623 17.1621C107.22 16.3184 107.912 15.5859 108.697 14.9648C109.482 14.3438 110.32 13.8281 111.21 13.418C112.113 13.0078 113.044 12.7031 114.005 12.5039C114.966 12.293 115.939 12.1875 116.923 12.1875C118.365 12.1875 119.712 12.416 120.966 12.873C122.232 13.3301 123.322 14.0215 124.236 14.9473C125.15 15.873 125.871 17.0215 126.398 18.3926C126.925 19.752 127.189 21.3457 127.189 23.1738ZM113.531 25.8633C114.257 25.8633 114.978 25.7461 115.693 25.5117C116.419 25.2773 117.07 24.9375 117.644 24.4922C118.218 24.0469 118.681 23.5137 119.033 22.8926C119.384 22.2598 119.56 21.5625 119.56 20.8008C119.56 20.2266 119.443 19.7402 119.209 19.3418C118.986 18.9434 118.693 18.627 118.33 18.3926C117.966 18.1465 117.568 17.9707 117.134 17.8652C116.701 17.7598 116.285 17.707 115.886 17.707C115.183 17.707 114.457 17.8477 113.707 18.1289C112.968 18.3984 112.294 18.7676 111.685 19.2363C111.076 19.7051 110.566 20.25 110.156 20.8711C109.746 21.4922 109.541 22.1367 109.541 22.8047C109.541 23.332 109.658 23.7891 109.892 24.1758C110.138 24.5625 110.449 24.8848 110.824 25.1426C111.199 25.3887 111.626 25.5703 112.107 25.6875C112.587 25.8047 113.062 25.8633 113.531 25.8633ZM149.335 12.2227C150.519 12.75 151.538 13.418 152.394 14.2266C153.261 15.0352 153.976 15.9316 154.538 16.916C155.113 17.9004 155.535 18.9492 155.804 20.0625C156.085 21.1758 156.226 22.3066 156.226 23.4551C156.226 25.1191 155.939 26.7012 155.365 28.2012C154.802 29.7012 153.976 31.0078 152.886 32.1211C151.796 33.2344 150.449 34.1191 148.843 34.7754C147.238 35.4434 145.398 35.7773 143.324 35.7773C141.742 35.7773 140.142 35.5137 138.525 34.9863C136.908 34.459 135.443 33.709 134.13 32.7363C132.829 31.7637 131.757 30.5918 130.913 29.2207C130.07 27.8496 129.648 26.3262 129.648 24.6504C129.648 23.7363 129.794 22.7871 130.087 21.8027C130.204 21.3223 130.445 21.0234 130.808 20.9062C131.183 20.7891 131.599 20.7305 132.056 20.7305C132.49 20.7305 132.923 20.7422 133.357 20.7656C133.79 20.7891 134.201 20.8008 134.587 20.8008C135.068 20.8008 135.642 20.7539 136.31 20.6602C136.978 20.5547 137.617 20.502 138.226 20.502C138.706 20.502 139.117 20.5781 139.456 20.7305C139.808 20.8711 140.042 21.1699 140.16 21.627C139.995 22.0371 139.884 22.4238 139.826 22.7871C139.767 23.1387 139.738 23.4844 139.738 23.8242C139.738 24.8789 140.048 25.6875 140.669 26.25C141.29 26.8125 141.988 27.0938 142.761 27.0938C143.699 27.0938 144.519 26.7012 145.222 25.916C145.925 25.1191 146.277 23.8828 146.277 22.207C146.277 21.5039 146.124 20.9004 145.82 20.3965C145.527 19.8926 145.14 19.4824 144.66 19.166C144.179 18.8379 143.628 18.5977 143.007 18.4453C142.386 18.2812 141.747 18.1992 141.091 18.1992C140.036 18.1992 139.081 18.3809 138.226 18.7441C137.91 18.6973 137.617 18.4219 137.347 17.918C137.089 17.4141 136.843 16.8164 136.609 16.125C136.386 15.4219 136.169 14.7012 135.958 13.9629C135.759 13.2129 135.566 12.5742 135.378 12.0469C135.566 11.8125 135.788 11.6133 136.046 11.4492C136.316 11.2734 136.591 11.1211 136.872 10.9922C137.165 10.8516 137.452 10.7109 137.734 10.5703C138.015 10.4297 138.261 10.248 138.472 10.0254C137.874 9.93164 137.16 9.87891 136.327 9.86719C135.495 9.85547 134.699 9.83789 133.937 9.81445C133.187 9.79102 132.548 9.75 132.021 9.69141C131.494 9.63281 131.23 9.50391 131.23 9.30469C131.23 8.92969 131.212 8.55469 131.177 8.17969C131.142 7.80469 131.124 7.42383 131.124 7.03711C131.124 5.45508 131.283 3.9668 131.599 2.57227C131.622 2.19727 131.652 1.86914 131.687 1.58789C131.722 1.29492 131.945 1.0957 132.355 0.990234C132.636 0.943359 132.9 0.902344 133.146 0.867188C133.404 0.832031 133.656 0.814453 133.902 0.814453C135.554 1.10742 137.212 1.29492 138.876 1.37695C140.552 1.45898 142.228 1.5 143.904 1.5C145.275 1.5 146.576 1.51758 147.806 1.55273C149.048 1.58789 150.355 1.60547 151.726 1.60547C152.253 1.60547 152.693 1.6875 153.044 1.85156C153.408 2.00391 153.589 2.18555 153.589 2.39648C153.589 3.76758 153.56 5.15625 153.501 6.5625C153.443 7.96875 153.39 9.35156 153.343 10.7109C152.64 10.9336 151.949 11.1387 151.269 11.3262C150.589 11.5137 149.945 11.8125 149.335 12.2227Z" fill="white"/>
</svg>
