<svg width="319" height="45" viewBox="0 0 319 45" fill="none" xmlns="http://www.w3.org/2000/svg">
<path d="M18.69 26.148C20.496 25.35 21.714 24.384 21.378 27.03C20.832 30.81 17.262 31.944 14.154 31.02C8.526 29.298 8.652 22.998 10.374 17.958C13.062 10.398 14.868 13.674 20.496 15.648C23.604 16.782 26.502 14.934 26.796 11.742C26.922 10.02 26.334 8.592 25.284 7.29C23.31 4.812 20.58 3.888 17.514 3.678C5.502 3.09 0.126 17.328 1.344 27.912C2.1 34.632 7.14 40.218 14.364 40.806C23.898 41.562 31.584 36.018 30.408 25.602C29.946 22.746 28.602 20.436 25.914 19.008C21.588 16.74 15.372 20.436 14.154 23.46C13.692 24.468 13.734 25.434 14.49 26.316C15.288 27.03 16.254 27.324 17.262 26.82C17.766 26.61 18.228 26.358 18.69 26.148ZM47.29 34.254C47.458 34.926 47.584 35.598 47.794 36.186C48.886 39.084 50.692 41.268 53.716 42.276C55.312 42.78 56.74 42.444 57.874 41.184C58.966 40.008 58.966 38.622 58.336 37.194C57.958 36.186 57.58 35.178 57.412 34.086C56.782 30.516 57.37 26.862 57.58 23.292C57.874 19.974 58.294 16.614 58.336 13.38C58.42 10.692 57.748 8.214 55.984 6.156C54.136 3.804 51.574 2.796 48.592 3.762C47.332 4.098 46.03 4.77 44.896 5.526C41.956 7.584 39.898 10.482 38.26 13.59C34.648 20.268 32.674 27.366 31.12 34.674C30.952 35.472 30.91 36.27 31.036 37.11C31.372 39.168 33.64 40.134 35.278 38.748C35.866 38.244 36.244 37.488 36.706 36.816C37.084 36.06 37.378 35.304 37.672 34.716C40.99 34.59 44.098 34.422 47.29 34.254ZM40.99 26.988C43.09 22.368 45.064 17.832 48.508 14.052C48.592 18.126 47.92 22.032 47.458 25.938C45.232 26.232 43.216 26.61 40.99 26.988ZM68.1716 25.602C71.1536 26.106 73.5896 25.434 76.0256 24.552C77.2016 24.09 78.0836 23.376 78.6716 22.2C79.6796 20.184 78.4616 18.042 76.2356 17.958C74.1776 17.916 72.1196 17.958 70.0196 18.042C69.3476 18.042 68.6336 18.21 67.7096 18.294C67.5416 16.404 67.4996 15.06 67.5836 14.01C67.9196 9.348 74.3456 13.464 77.2436 14.304C83.3336 16.068 86.9876 9.348 79.9736 5.736C76.4876 3.93 72.1196 2.124 68.1296 2.712C63.6356 3.3 60.6116 7.836 60.5696 12.456C60.4856 18.126 60.4856 23.712 60.6116 29.298C60.6116 31.398 60.9476 33.54 61.9556 35.388C63.0896 37.74 64.8956 39.336 67.4576 39.84C70.2296 40.47 73.0016 40.638 75.7316 40.05C79.6376 39.168 82.2836 36.732 84.0896 33.246C84.9296 31.398 84.5936 29.382 83.2916 28.122C81.9476 26.82 80.3516 26.736 78.6296 27.534C77.5376 28.08 76.4456 28.71 75.2696 29.214C74.5976 29.55 73.7576 29.844 73.0016 29.886C69.4316 30.222 68.0036 29.676 68.1716 25.602ZM104.044 26.148C105.85 25.35 107.068 24.384 106.732 27.03C106.186 30.81 102.616 31.944 99.5075 31.02C93.8795 29.298 94.0055 22.998 95.7275 17.958C98.4155 10.398 100.222 13.674 105.85 15.648C108.958 16.782 111.856 14.934 112.15 11.742C112.276 10.02 111.688 8.592 110.638 7.29C108.664 4.812 105.934 3.888 102.868 3.678C90.8555 3.09 85.4795 17.328 86.6975 27.912C87.4535 34.632 92.4935 40.218 99.7175 40.806C109.252 41.562 116.938 36.018 115.762 25.602C115.3 22.746 113.956 20.436 111.268 19.008C106.942 16.74 100.726 20.436 99.5075 23.46C99.0455 24.468 99.0875 25.434 99.8435 26.316C100.642 27.03 101.608 27.324 102.616 26.82C103.12 26.61 103.582 26.358 104.044 26.148ZM135.71 23.334C134.534 26.61 132.056 32.826 130.166 30.894C127.73 28.458 128.57 21.486 128.822 18C128.99 15.312 129.242 12.708 129.326 10.02C129.368 9.054 129.242 8.088 128.948 7.122C128.444 5.442 127.352 4.266 125.462 4.056C123.53 3.846 122.018 4.686 121.136 6.408C120.632 7.29 120.254 8.34 120.002 9.348C119.498 11.826 119.12 14.304 118.826 16.824C118.406 20.688 118.028 24.552 118.7 28.458C119.498 33.456 121.934 37.278 126.596 39.42C132.98 42.108 137.012 38.286 140.33 33.036C139.742 38.916 143.48 44.964 149.36 44.166C150.578 43.998 151.46 43.368 151.922 42.234C152.384 41.184 152.342 39.924 151.418 39.126C147.68 35.976 149.528 24.72 149.99 20.52C150.41 16.572 150.956 12.582 151.376 8.592C151.46 7.29 151.376 5.946 151.082 4.644C150.62 2.754 148.982 1.914 147.26 1.62C145.664 1.326 144.53 2.292 143.69 3.594C143.438 4.014 143.186 4.392 143.018 4.854C139.826 10.692 138.062 17.202 135.71 23.334ZM176.324 29.046C181.448 26.358 188.714 18.63 187.244 10.734C186.446 6.492 183.086 3.342 178.886 2.502C170.57 0.863998 158.348 4.182 153.392 12.036C152.804 12.876 152.636 14.01 152.93 15.06C153.224 16.446 154.316 17.202 155.702 17.202C156.542 17.202 157.214 16.782 157.844 16.194C159.314 15.06 160.784 14.01 162.296 12.876C162.59 12.708 162.926 12.666 163.178 12.582C162.212 13.842 161.624 15.27 161.498 16.698C160.7 20.646 157.13 37.908 165.11 40.554C166.832 41.058 168.722 40.26 169.478 38.37C169.772 37.614 169.898 36.774 170.024 36.018C170.15 34.968 170.276 33.876 170.444 32.406C171.074 33.078 171.41 33.498 171.872 34.002C174.14 36.102 176.534 37.866 179.306 39.126C181.238 39.882 183.086 40.008 184.892 39C186.53 37.95 187.286 36.06 186.824 34.296C186.446 32.616 184.934 31.356 183.17 31.356C180.692 31.44 178.592 30.096 176.324 29.046ZM164.9 11.826C180.188 5.064 182.036 18.714 169.52 24.384C169.268 22.452 169.436 18.042 169.142 16.026C168.68 13.338 167.588 12.246 164.9 11.826ZM192.166 6.114C190.57 10.902 187.504 26.904 190.696 37.53C191.158 39.042 192.166 40.176 193.72 40.848C196.408 41.94 199.054 40.176 199.18 37.32C199.306 33.918 199.306 30.516 199.432 27.114C199.6 23.334 199.852 19.596 200.02 15.9C200.146 13.086 200.146 10.356 200.104 7.584C200.104 6.786 199.852 5.988 199.516 5.232C198.34 2.754 195.316 2.292 193.426 4.266C192.922 4.77 192.46 5.484 192.166 6.114ZM221.385 14.178C221.427 14.22 221.511 14.304 221.553 14.304C220.965 17.202 220.419 20.058 219.915 22.956C219.243 28.206 219.411 39.336 224.955 40.428C227.391 41.142 229.533 39.378 229.239 36.858C229.029 28.416 230.583 20.016 231.087 11.616C231.213 10.188 231.045 8.718 230.709 7.29C229.743 3.636 226.383 2.208 223.065 4.014C221.805 4.602 220.755 5.568 219.705 6.492C217.143 8.802 215.211 11.616 213.657 14.682C213.531 15.144 213.237 15.48 212.985 15.816C212.775 14.85 212.901 13.926 212.901 13.044C212.901 10.86 212.901 8.634 212.649 6.492C212.481 4.854 211.389 3.804 209.751 3.468C208.239 3.132 206.853 3.804 206.013 5.064C205.509 5.862 204.921 6.702 204.711 7.626C202.821 16.11 202.107 29.34 204.417 35.934C205.383 38.622 206.979 40.638 209.667 40.302C210.465 40.218 211.263 39.84 211.977 39.168C213.279 37.992 213.573 36.438 213.951 34.926C215.715 27.534 217.353 20.772 221.385 14.178ZM254.542 35.01C258.742 32.364 256.012 26.4 251.266 28.626C248.242 30.096 243.202 32.91 242.992 30.558C242.656 27.744 242.866 24.93 243.16 22.074C243.622 18.252 244.336 14.388 244.798 10.524C245.008 8.928 245.05 7.29 244.84 5.736C244.672 4.266 243.79 3.174 242.236 2.88C240.724 2.544 239.632 3.132 238.708 4.308C238.33 4.938 237.952 5.61 237.574 6.24C235.768 10.23 234.508 14.43 233.71 18.756C232.954 22.452 232.576 26.148 233.08 29.928C233.374 32.322 234.004 34.632 235.39 36.69C237.49 39.882 240.766 41.142 244.504 40.26C248.368 39.378 251.434 37.152 254.542 35.01ZM273.204 34.254C273.372 34.926 273.498 35.598 273.708 36.186C274.8 39.084 276.606 41.268 279.63 42.276C281.226 42.78 282.654 42.444 283.788 41.184C284.88 40.008 284.88 38.622 284.25 37.194C283.872 36.186 283.494 35.178 283.326 34.086C282.696 30.516 283.284 26.862 283.494 23.292C283.788 19.974 284.208 16.614 284.25 13.38C284.334 10.692 283.662 8.214 281.898 6.156C280.05 3.804 277.488 2.796 274.506 3.762C273.246 4.098 271.944 4.77 270.81 5.526C267.87 7.584 265.812 10.482 264.174 13.59C260.562 20.268 258.588 27.366 257.034 34.674C256.866 35.472 256.824 36.27 256.95 37.11C257.286 39.168 259.554 40.134 261.192 38.748C261.78 38.244 262.158 37.488 262.62 36.816C262.998 36.06 263.292 35.304 263.586 34.716C266.904 34.59 270.012 34.422 273.204 34.254ZM266.904 26.988C269.004 22.368 270.978 17.832 274.422 14.052C274.506 18.126 273.834 22.032 273.372 25.938C271.146 26.232 269.13 26.61 266.904 26.988ZM291.44 29.55C291.356 29.55 291.272 29.55 291.23 29.55C291.062 29.466 290.936 29.382 290.852 29.298C289.76 28.584 288.626 28.458 287.534 29.256C286.442 30.012 286.274 31.062 286.442 32.364C286.694 33.582 287.24 34.716 288.038 35.64C288.962 36.732 289.97 37.782 291.062 38.706C295.85 42.444 301.142 44.082 307.106 42.234C312.02 40.68 315.548 37.74 317.018 32.574C318.278 27.786 316.85 23.334 312.902 20.478C312.188 19.932 311.264 19.47 310.34 18.882C310.76 18.42 311.138 18.042 311.474 17.58C312.692 16.11 313.7 14.514 314.33 12.75C315.59 8.592 313.952 4.854 310.004 3.09C308.198 2.292 306.35 1.83 304.376 1.83C298.958 1.872 294.128 3.594 290.012 7.248C288.962 8.214 288.038 9.432 287.198 10.692C286.526 11.7 286.232 12.876 286.316 14.178C286.4 15.312 286.904 16.11 287.912 16.572C288.962 17.076 289.928 16.866 290.726 16.11C291.062 15.942 291.356 15.648 291.734 15.354C291.44 17.874 291.146 20.268 290.936 22.536C290.726 24.93 290.852 27.198 291.44 29.55ZM298.706 33.33C300.302 31.02 300.806 28.584 301.058 25.896C302.864 25.308 304.586 25.224 306.35 25.938C308.072 26.61 308.702 28.038 308.072 29.802C307.568 31.062 306.77 32.112 305.468 32.742C303.368 33.75 301.184 34.212 298.706 33.33ZM299.378 10.188C307.022 6.66 307.19 13.716 300.554 16.572C300.134 14.472 299.756 12.414 299.378 10.188Z" fill="white"/>
</svg>
