<svg width="148" height="20" viewBox="0 0 148 20" fill="none" xmlns="http://www.w3.org/2000/svg">
<path d="M8.19563 11.5214C9.04071 11.1474 9.61065 10.6946 9.45342 11.9348C9.19794 13.7065 7.52743 14.238 6.07311 13.8049C3.4396 12.9978 3.49856 10.0449 4.30434 7.68265C5.56213 4.13919 6.40721 5.67469 9.04071 6.59992C10.495 7.13144 11.8511 6.26527 11.9887 4.76914C12.0476 3.96202 11.7725 3.2927 11.2812 2.68244C10.3575 1.52098 9.08002 1.08789 7.64535 0.989458C2.02459 0.713856 -0.490996 7.38736 0.0789408 12.3482C0.432695 15.4979 2.79106 18.1161 6.17137 18.3918C10.6326 18.7461 14.2291 16.1476 13.6788 11.2655C13.4626 9.92683 12.8337 8.84411 11.5759 8.17479C9.55169 7.11176 6.64304 8.84411 6.07311 10.2615C5.85692 10.734 5.87658 11.1867 6.23033 11.6001C6.60374 11.9348 7.05576 12.0726 7.52743 11.8364C7.76327 11.7379 7.97945 11.6198 8.19563 11.5214Z" fill="white"/>
<path d="M21.5784 15.3208C21.657 15.6357 21.716 15.9507 21.8142 16.2263C22.3252 17.5846 23.1703 18.6083 24.5853 19.0808C25.3321 19.317 26.0003 19.1595 26.531 18.5689C27.0419 18.0177 27.0419 17.3681 26.7471 16.6988C26.5703 16.2263 26.3934 15.7538 26.3148 15.242C26.02 13.5687 26.2951 11.856 26.3934 10.1828C26.531 8.62757 26.7275 7.0527 26.7471 5.53689C26.7865 4.27699 26.472 3.11553 25.6466 2.15092C24.7818 1.04852 23.583 0.576055 22.1877 1.02883C21.5981 1.18632 20.9888 1.50129 20.4582 1.85564C19.0825 2.82024 18.1195 4.17857 17.353 5.63532C15.6629 8.76537 14.7392 12.0923 14.012 15.5176C13.9334 15.8916 13.9137 16.2657 13.9727 16.6594C14.1299 17.624 15.1912 18.0768 15.9576 17.4271C16.2328 17.1909 16.4097 16.8366 16.6259 16.5216C16.8027 16.1672 16.9403 15.8129 17.0779 15.5373C18.6305 15.4782 20.0848 15.3995 21.5784 15.3208ZM18.6305 11.9151C19.6131 9.74966 20.5368 7.62359 22.1483 5.85186C22.1877 7.76139 21.8732 9.59218 21.657 11.423C20.6154 11.5608 19.6721 11.7379 18.6305 11.9151Z" fill="white"/>
<path d="M31.3495 11.2655C32.7448 11.5017 33.8847 11.1867 35.0246 10.7733C35.5749 10.5568 35.9876 10.2221 36.2627 9.67092C36.7344 8.726 36.1645 7.72202 35.1229 7.68265C34.1599 7.66296 33.1969 7.68265 32.2142 7.72202C31.8998 7.72202 31.5657 7.80076 31.1333 7.84013C31.0547 6.95427 31.035 6.32432 31.0743 5.83218C31.2316 3.64705 34.2385 5.57626 35.5945 5.96998C38.4442 6.79678 40.154 3.64705 36.872 1.95406C35.2408 1.10757 33.1969 0.261082 31.3298 0.536684C29.227 0.812285 27.8119 2.93836 27.7923 5.1038C27.753 7.76139 27.753 10.3796 27.8119 12.9978C27.8119 13.9821 27.9692 14.9861 28.4408 15.8523C28.9715 16.9547 29.8165 17.7027 31.0154 17.939C32.3125 18.2343 33.6096 18.313 34.887 18.0374C36.7148 17.624 37.9529 16.4822 38.798 14.8483C39.191 13.9821 39.0338 13.0372 38.4246 12.4466C37.7957 11.8364 37.0489 11.797 36.2431 12.171C35.7321 12.4269 35.2211 12.7222 34.6708 12.9585C34.3564 13.1159 33.9633 13.2537 33.6096 13.2734C31.9391 13.4309 31.2709 13.175 31.3495 11.2655Z" fill="white"/>
<path d="M48.135 11.5214C48.9801 11.1474 49.55 10.6946 49.3928 11.9348C49.1373 13.7065 47.4668 14.238 46.0125 13.8049C43.379 12.9978 43.4379 10.0449 44.2437 7.68265C45.5015 4.13919 46.3466 5.67469 48.9801 6.59992C50.4344 7.13144 51.7905 6.26527 51.928 4.76914C51.987 3.96202 51.7118 3.2927 51.2205 2.68244C50.2968 1.52098 49.0194 1.08789 47.5847 0.989458C41.9639 0.713856 39.4484 7.38736 40.0183 12.3482C40.3721 15.4979 42.7304 18.1161 46.1107 18.3918C50.572 18.7461 54.1685 16.1476 53.6182 11.2655C53.402 9.92683 52.7731 8.84411 51.5153 8.17479C49.491 7.11176 46.5824 8.84411 46.0125 10.2615C45.7963 10.734 45.8159 11.1867 46.1697 11.6001C46.5431 11.9348 46.9951 12.0726 47.4668 11.8364C47.7026 11.7379 47.9188 11.6198 48.135 11.5214Z" fill="white"/>
<path d="M62.9524 10.2024C62.4022 11.7379 61.2426 14.6514 60.3582 13.7459C59.2184 12.6041 59.6114 9.33626 59.7293 7.70233C59.808 6.44244 59.9259 5.22192 59.9652 3.96202C59.9848 3.50925 59.9259 3.05647 59.7883 2.6037C59.5525 1.81626 59.0415 1.26506 58.1571 1.16663C57.2531 1.0682 56.5456 1.46192 56.1328 2.26904C55.897 2.68244 55.7201 3.17459 55.6022 3.64705C55.3664 4.80851 55.1895 5.96998 55.0519 7.15113C54.8554 8.96223 54.6785 10.7733 54.993 12.6041C55.3664 14.9467 56.5063 16.7381 58.6877 17.7421C61.675 19.002 63.5617 17.2106 65.1143 14.7499C64.8391 17.5059 66.5882 20.3406 69.3397 19.9666C69.9096 19.8879 70.3223 19.5926 70.5385 19.0611C70.7547 18.5689 70.735 17.9783 70.3027 17.6043C68.5535 16.1279 69.4183 10.8521 69.6345 8.88348C69.831 7.03301 70.0865 5.16286 70.283 3.2927C70.3223 2.68244 70.283 2.05249 70.1454 1.44223C69.9293 0.556369 69.1628 0.162653 68.357 0.024851C67.6102 -0.112949 67.0796 0.339825 66.6865 0.950086C66.5686 1.14694 66.4507 1.32412 66.3721 1.54066C64.8784 4.277 64.053 7.3283 62.9524 10.2024Z" fill="white"/>
<path d="M81.9571 12.8797C84.3547 11.6198 87.7547 7.99762 87.0668 4.29668C86.6934 2.30841 85.1212 0.831971 83.1559 0.438254C79.2646 -0.329494 73.5456 1.22569 71.2265 4.90694C70.9514 5.30066 70.8727 5.83218 71.0103 6.32432C71.1479 6.97396 71.6589 7.3283 72.3074 7.3283C72.7005 7.3283 73.0149 7.13144 73.3097 6.85584C73.9976 6.32432 74.6854 5.83218 75.3929 5.30066C75.5305 5.22192 75.6877 5.20223 75.8057 5.16286C75.3536 5.75343 75.0785 6.42275 75.0195 7.09207C74.6461 8.94254 72.9756 17.0334 76.7097 18.2736C77.5155 18.5099 78.3999 18.1358 78.7536 17.25C78.8912 16.8956 78.9501 16.5019 79.0091 16.1476C79.0681 15.6554 79.127 15.1436 79.2056 14.4546C79.5004 14.7696 79.6576 14.9664 79.8738 15.2026C80.9351 16.1869 82.0553 17.0137 83.3524 17.6043C84.2565 17.9587 85.1212 18.0177 85.9663 17.5453C86.7327 17.0531 87.0865 16.1672 86.8703 15.3404C86.6934 14.553 85.9859 13.9624 85.1605 13.9624C84.001 14.0018 83.0183 13.3719 81.9571 12.8797ZM76.6114 4.80851C83.7651 1.63909 84.6299 8.03699 78.7733 10.6946C78.6553 9.78903 78.734 7.72202 78.5964 6.7771C78.3802 5.5172 77.8692 5.00537 76.6114 4.80851Z" fill="white"/>
<path d="M89.3699 2.13124C88.6231 4.37542 87.1884 11.8757 88.6821 16.8563C88.8982 17.5649 89.3699 18.0965 90.0971 18.4114C91.3549 18.9233 92.593 18.0965 92.652 16.7578C92.7109 15.1633 92.7109 13.5687 92.7699 11.9742C92.8485 10.2024 92.9664 8.4504 93.045 6.71804C93.104 5.39909 93.104 4.11951 93.0843 2.82024C93.0843 2.44621 92.9664 2.07218 92.8092 1.71783C92.2589 0.556369 90.8439 0.339825 89.9595 1.26506C89.7237 1.50129 89.5075 1.83595 89.3699 2.13124Z" fill="white"/>
<path d="M103.042 5.91092C103.062 5.93061 103.101 5.96998 103.121 5.96998C102.846 7.3283 102.59 8.66694 102.354 10.0253C102.04 12.486 102.119 17.7027 104.713 18.2146C105.853 18.5492 106.855 17.7224 106.717 16.5413C106.619 12.5844 107.346 8.64725 107.582 4.71008C107.641 4.04076 107.562 3.35176 107.405 2.68244C106.953 0.969771 105.381 0.300453 103.828 1.14694C103.239 1.42255 102.747 1.87532 102.256 2.30841C101.057 3.39113 100.153 4.71008 99.4261 6.14715C99.3672 6.3637 99.2296 6.52118 99.1117 6.67867C99.0134 6.22589 99.0724 5.79281 99.0724 5.3794C99.0724 4.35574 99.0724 3.31239 98.9544 2.30841C98.8758 1.54066 98.3649 1.04852 97.5984 0.891029C96.8909 0.733542 96.2423 1.04851 95.8493 1.63909C95.6134 2.01312 95.3383 2.40684 95.24 2.83993C94.3556 6.81647 94.0215 13.0175 95.1025 16.1082C95.5545 17.3681 96.3013 18.313 97.5591 18.1555C97.9325 18.1161 98.3059 17.939 98.64 17.624C99.2492 17.0728 99.3868 16.3444 99.5637 15.6357C100.389 12.171 101.156 9.0016 103.042 5.91092Z" fill="white"/>
<path d="M118.558 15.6751C120.523 14.4349 119.246 11.6395 117.025 12.6829C115.61 13.3719 113.251 14.6908 113.153 13.5884C112.996 12.2695 113.094 10.9505 113.232 9.61186C113.448 7.82045 113.782 6.00935 113.998 4.19825C114.096 3.45019 114.116 2.68244 114.018 1.95406C113.939 1.26506 113.527 0.753228 112.799 0.615427C112.092 0.45794 111.581 0.733542 111.149 1.28475C110.972 1.58003 110.795 1.89501 110.618 2.19029C109.773 4.06045 109.183 6.02904 108.81 8.05668C108.456 9.78903 108.279 11.5214 108.515 13.2931C108.653 14.4152 108.947 15.4979 109.596 16.4625C110.579 17.9587 112.112 18.5492 113.861 18.1358C115.669 17.7224 117.103 16.6791 118.558 15.6751Z" fill="white"/>
<path d="M127.29 15.3208C127.369 15.6357 127.428 15.9507 127.526 16.2263C128.037 17.5846 128.882 18.6083 130.297 19.0808C131.044 19.317 131.712 19.1595 132.243 18.5689C132.754 18.0177 132.754 17.3681 132.459 16.6988C132.282 16.2263 132.105 15.7538 132.026 15.242C131.732 13.5687 132.007 11.856 132.105 10.1828C132.243 8.62757 132.439 7.0527 132.459 5.53689C132.498 4.27699 132.184 3.11553 131.358 2.15092C130.494 1.04852 129.295 0.576055 127.899 1.02883C127.31 1.18632 126.7 1.50129 126.17 1.85564C124.794 2.82024 123.831 4.17857 123.065 5.63532C121.375 8.76537 120.451 12.0923 119.724 15.5176C119.645 15.8916 119.625 16.2657 119.684 16.6594C119.842 17.624 120.903 18.0768 121.669 17.4271C121.944 17.1909 122.121 16.8366 122.338 16.5216C122.514 16.1672 122.652 15.8129 122.79 15.5373C124.342 15.4782 125.796 15.3995 127.29 15.3208ZM124.342 11.9151C125.325 9.74966 126.248 7.62359 127.86 5.85186C127.899 7.76139 127.585 9.59218 127.369 11.423C126.327 11.5608 125.384 11.7379 124.342 11.9151Z" fill="white"/>
<path d="M135.823 13.1159C135.784 13.1159 135.744 13.1159 135.725 13.1159C135.646 13.0766 135.587 13.0372 135.548 12.9978C135.037 12.6632 134.506 12.6041 133.995 12.9781C133.484 13.3325 133.406 13.8246 133.484 14.4349C133.602 15.0058 133.858 15.5373 134.231 15.9704C134.663 16.4822 135.135 16.9744 135.646 17.4075C137.887 19.1595 140.363 19.9272 143.154 19.0611C145.453 18.3327 147.104 16.9547 147.792 14.5333C148.381 12.2891 147.713 10.2024 145.866 8.8638C145.532 8.60788 145.099 8.39134 144.667 8.11574C144.863 7.89919 145.04 7.72202 145.197 7.50547C145.767 6.81647 146.239 6.06841 146.534 5.2416C147.124 3.2927 146.357 1.54066 144.51 0.713856C143.665 0.339825 142.8 0.12328 141.876 0.12328C139.341 0.142966 137.081 0.950086 135.155 2.66276C134.663 3.11553 134.231 3.68642 133.838 4.277C133.524 4.74946 133.386 5.30066 133.425 5.91092C133.465 6.44244 133.701 6.81647 134.172 7.03301C134.663 7.26924 135.116 7.17082 135.489 6.81647C135.646 6.73773 135.784 6.59992 135.961 6.46212C135.823 7.64328 135.685 8.76537 135.587 9.8284C135.489 10.9505 135.548 12.0135 135.823 13.1159ZM139.223 14.8877C139.97 13.8049 140.206 12.6632 140.324 11.4033C141.169 11.1277 141.974 11.0883 142.8 11.423C143.606 11.7379 143.9 12.4073 143.606 13.2341C143.37 13.8246 142.996 14.3168 142.387 14.6121C141.404 15.0845 140.383 15.3011 139.223 14.8877ZM139.537 4.04076C143.114 2.38715 143.193 5.69438 140.088 7.03301C139.891 6.04872 139.714 5.08412 139.537 4.04076Z" fill="white"/>
</svg>
