<svg width="24" height="25" viewBox="0 0 24 25" fill="none" xmlns="http://www.w3.org/2000/svg">
<path d="M7.85848 2.56994C6.79447 2.62014 6.06786 2.78994 5.43265 3.03954C4.77524 3.29574 4.21804 3.63954 3.66363 4.19594C3.10923 4.75235 2.76782 5.30995 2.51342 5.96835C2.26722 6.60495 2.10042 7.33215 2.05342 8.39676C2.00642 9.46136 1.99602 9.80356 2.00122 12.5192C2.00642 15.2348 2.01842 15.5752 2.07002 16.642C2.12082 17.7058 2.29002 18.4322 2.53962 19.0676C2.79622 19.725 3.13963 20.282 3.69623 20.8366C4.25284 21.3912 4.81004 21.7318 5.47005 21.9866C6.10606 22.2324 6.83347 22.4 7.89788 22.4466C8.96229 22.4932 9.30489 22.504 12.0197 22.4988C14.7345 22.4936 15.0763 22.4816 16.143 22.431C17.2096 22.3804 17.9322 22.21 18.5678 21.9616C19.2252 21.7044 19.7826 21.3616 20.3368 20.8048C20.891 20.248 21.2322 19.69 21.4864 19.0312C21.7328 18.3952 21.9002 17.6678 21.9464 16.6042C21.993 15.5368 22.004 15.196 21.9988 12.4808C21.9936 9.76556 21.9814 9.42516 21.9308 8.35876C21.8802 7.29235 21.7108 6.56815 21.4614 5.93235C21.2044 5.27495 20.8614 4.71835 20.305 4.16334C19.7486 3.60834 19.1902 3.26734 18.5316 3.01374C17.8952 2.76754 17.1682 2.59974 16.1038 2.55374C15.0393 2.50774 14.6967 2.49594 11.9809 2.50114C9.26509 2.50634 8.92509 2.51794 7.85848 2.56994ZM7.97528 20.6476C7.00027 20.6052 6.47086 20.4432 6.11806 20.3076C5.65085 20.1276 5.31805 19.91 4.96645 19.5618C4.61484 19.2136 4.39884 18.8796 4.21644 18.4134C4.07944 18.0606 3.91444 17.5318 3.86884 16.5568C3.81923 15.503 3.80883 15.1866 3.80303 12.5168C3.79723 9.84696 3.80743 9.53096 3.85363 8.47676C3.89524 7.50256 4.05824 6.97255 4.19364 6.61995C4.37364 6.15215 4.59044 5.81995 4.93945 5.46855C5.28845 5.11715 5.62145 4.90075 6.08806 4.71835C6.44046 4.58074 6.96927 4.41714 7.94388 4.37074C8.99849 4.32074 9.31449 4.31074 11.9839 4.30494C14.6533 4.29914 14.9701 4.30914 16.0252 4.35554C16.9994 4.39794 17.5296 4.55934 17.8818 4.69555C18.3492 4.87555 18.6818 5.09175 19.0332 5.44135C19.3846 5.79095 19.6012 6.12275 19.7836 6.59035C19.9214 6.94175 20.085 7.47036 20.131 8.44556C20.1812 9.50016 20.1926 9.81636 20.1974 12.4856C20.2022 15.1548 20.1928 15.4718 20.1466 16.5256C20.104 17.5006 19.9424 18.0302 19.8066 18.3834C19.6266 18.8504 19.4096 19.1834 19.0604 19.5346C18.7112 19.8858 18.3786 20.1022 17.9118 20.2846C17.5598 20.422 17.0304 20.586 16.0566 20.6324C15.0019 20.682 14.6859 20.6924 12.0155 20.6982C9.34509 20.704 9.03009 20.6932 7.97548 20.6476M16.1276 7.15535C16.128 7.39271 16.1987 7.62462 16.3309 7.82174C16.4631 8.01887 16.6508 8.17237 16.8703 8.26281C17.0897 8.35326 17.3311 8.3766 17.5638 8.32988C17.7965 8.28315 18.0101 8.16847 18.1777 8.00033C18.3452 7.83218 18.4591 7.61813 18.505 7.38525C18.5508 7.15237 18.5266 6.91112 18.4354 6.69201C18.3441 6.47289 18.1899 6.28576 17.9923 6.15428C17.7947 6.0228 17.5625 5.95288 17.3252 5.95335C17.007 5.95399 16.7021 6.08097 16.4775 6.30638C16.2529 6.53179 16.127 6.83716 16.1276 7.15535M6.86547 12.51C6.87107 15.346 9.17429 17.6398 12.0097 17.6344C14.8451 17.629 17.1406 15.326 17.1352 12.49C17.1298 9.65396 14.8259 7.35955 11.9901 7.36515C9.15429 7.37075 6.86007 9.67436 6.86547 12.51ZM8.66668 12.5064C8.66538 11.8471 8.85961 11.2022 9.2248 10.6533C9.59 10.1044 10.1098 9.67614 10.7184 9.42264C11.327 9.16914 11.9971 9.1018 12.644 9.22914C13.2908 9.35648 13.8854 9.67278 14.3525 10.138C14.8196 10.6033 15.1383 11.1966 15.2682 11.843C15.3981 12.4894 15.3334 13.1597 15.0823 13.7693C14.8312 14.3789 14.405 14.9004 13.8576 15.2677C13.3101 15.6351 12.666 15.8319 12.0067 15.8332C11.5689 15.8341 11.1353 15.7488 10.7305 15.5821C10.3257 15.4154 9.95773 15.1706 9.64757 14.8616C9.33741 14.5527 9.09115 14.1857 8.92284 13.7816C8.75454 13.3775 8.6675 12.9441 8.66668 12.5064" fill="white"/>
</svg>
