<svg width="24" height="25" viewBox="0 0 24 25" fill="none" xmlns="http://www.w3.org/2000/svg">
<g clip-path="url(#clip0_34_131)">
<path d="M9.86469 11.7354C9.86469 11.7354 11.9494 11.5617 11.9494 9.12946C11.9494 6.69726 10.2701 5.53906 8.1274 5.53906H1.00452V19.2057H8.1274C8.1274 19.2057 12.4706 19.3216 12.4706 15.1521C12.4127 15.1521 12.6444 11.7354 9.86469 11.7354ZM4.13164 7.97127H8.1274C8.1274 7.97127 9.11187 7.97127 9.11187 9.41901C9.11187 10.8668 8.53277 11.0405 7.89577 11.0405H4.18955V7.97127H4.13164ZM7.89577 16.7156H4.13164V13.0673H8.1274C8.1274 13.0673 9.57515 13.0673 9.57515 14.9204C9.51724 16.5419 8.47486 16.7156 7.89577 16.7156Z" fill="#F1F2F2"/>
<path d="M20.9256 6.34961H15.3083V8.02899H20.9256V6.34961Z" fill="#F1F2F2"/>
<path d="M18.2037 9.01367C12.9339 9.01367 12.9339 14.2834 12.9339 14.2834C12.9339 14.2834 12.5864 19.4953 18.2037 19.4953C18.2037 19.4953 22.8944 19.7849 22.8944 15.847H20.4622C20.4622 15.847 20.5201 17.2948 18.2616 17.2948C18.2616 17.2948 15.8294 17.4685 15.8294 14.9205H22.8944C22.9523 14.9205 23.763 9.01367 18.2037 9.01367ZM15.8873 13.0673C15.8873 13.0673 16.1768 10.9826 18.2616 10.9826C20.3463 10.9826 20.3463 13.0673 20.3463 13.0673H15.8873Z" fill="#F1F2F2"/>
</g>
<defs>
<clipPath id="clip0_34_131">
<rect width="24" height="24" fill="white" transform="translate(0 0.5)"/>
</clipPath>
</defs>
</svg>
